<mxfile host="app.diagrams.net" modified="2023-08-07T02:48:59.352Z" agent="Mozilla/5.0 (Macintosh; Intel Mac OS X 10_15_7) AppleWebKit/537.36 (KHTML, like Gecko) Chrome/115.0.0.0 Safari/537.36" version="21.5.2" etag="QiV9b6EKJm3RtuTLLeEM" type="github">
  <diagram name="Page-1" id="wFu2enpn_MLQuZ8vrpeb">
    <mxGraphModel>
      <root>
        <mxCell id="0" />
        <mxCell id="1" parent="0" />
      </root>
    </mxGraphModel>
  </diagram>
</mxfile>
